<?xml version="1.0" encoding="UTF-8" standalone="no"?>
<!-- Created with Inkscape (http://www.inkscape.org/) -->

<svg
   xmlns:dc="http://purl.org/dc/elements/1.1/"
   xmlns:cc="http://creativecommons.org/ns#"
   xmlns:rdf="http://www.w3.org/1999/02/22-rdf-syntax-ns#"
   xmlns:svg="http://www.w3.org/2000/svg"
   xmlns="http://www.w3.org/2000/svg"
   xmlns:sodipodi="http://sodipodi.sourceforge.net/DTD/sodipodi-0.dtd"
   xmlns:inkscape="http://www.inkscape.org/namespaces/inkscape"
   width="41.668861"
   height="41.668861"
   id="svg3006"
   version="1.1"
   inkscape:version="0.48.3.1 r9886"
   sodipodi:docname="New document 2">
  <defs
     id="defs3008" />
  <sodipodi:namedview
     id="base"
     pagecolor="#ffffff"
     bordercolor="#666666"
     borderopacity="1.0"
     inkscape:pageopacity="0.0"
     inkscape:pageshadow="2"
     inkscape:zoom="6.0547912"
     inkscape:cx="23.067013"
     inkscape:cy="23.036305"
     inkscape:document-units="px"
     inkscape:current-layer="layer1"
     showgrid="false"
     fit-margin-top="0"
     fit-margin-left="0"
     fit-margin-right="0"
     fit-margin-bottom="0"
     inkscape:window-width="451"
     inkscape:window-height="445"
     inkscape:window-x="75"
     inkscape:window-y="75"
     inkscape:window-maximized="0" />
  <metadata
     id="metadata3011">
    <rdf:RDF>
      <cc:Work
         rdf:about="">
        <dc:format>image/svg+xml</dc:format>
        <dc:type
           rdf:resource="http://purl.org/dc/dcmitype/StillImage" />
        <dc:title></dc:title>
      </cc:Work>
    </rdf:RDF>
  </metadata>
  <g
     inkscape:label="Layer 1"
     inkscape:groupmode="layer"
     id="layer1"
     transform="translate(-336.30842,-217.24204)">
    <path
       transform="translate(260.98394,178.35474)"
       style="fill:#000000;stroke:none"
       d="m 116.99334,59.721729 c 0,11.506539 -9.32789,20.834431 -20.834427,20.834431 -11.506539,0 -20.834431,-9.327892 -20.834431,-20.834431 0,-11.506538 9.327892,-20.83443 20.834431,-20.83443 11.506537,0 20.834427,9.327892 20.834427,20.83443 z"
       id="path3033" />
    <path
       transform="matrix(0.88461538,0,0,0.88461538,272.0792,185.24571)"
       style="fill:#ffffff;stroke:none"
       d="m 116.99334,59.721729 c 0,11.506539 -9.32789,20.834431 -20.834427,20.834431 -11.506539,0 -20.834431,-9.327892 -20.834431,-20.834431 0,-11.506538 9.327892,-20.83443 20.834431,-20.83443 11.506537,0 20.834427,9.327892 20.834427,20.83443 z"
       id="path3035" />
    <path
       id="path3012"
       style="fill:#000000;fill-opacity:1;fill-rule:nonzero;stroke:none"
       d="m 364.45107,223.64257 c -0.53496,0.1496 -2.26687,0.96978 -2.92684,1.38604 l -0.43042,0.27155 -0.62171,-0.14347 c -0.40718,-0.0939 -1.36778,-0.16041 -2.78337,-0.19254 -2.20948,-0.0501 -3.27089,0.0267 -4.46679,0.323 l -0.59301,0.14692 -0.69824,-0.43673 c -0.85127,-0.53248 -2.16835,-1.14778 -2.76424,-1.29145 -0.24773,-0.0596 -0.65997,-0.10828 -0.91822,-0.10828 -0.41129,0 -0.48264,0.0304 -0.5826,0.24869 -0.37676,0.82286 -0.51152,2.67815 -0.2835,3.90245 l 0.11048,0.59302 -0.46017,0.62172 c -0.63013,0.85127 -1.06093,1.78709 -1.19761,2.60164 -0.20698,1.23386 -0.011,4.17448 0.33706,5.0598 0.0685,0.17408 0.10598,0.17016 -3.4904,0.36365 -2.47729,0.13334 -4.20953,0.34768 -4.40274,0.54501 -0.12651,0.12912 -0.0927,0.13725 0.33769,0.0816 2.24773,-0.29096 5.4355,-0.53114 7.04928,-0.53114 0.65041,0 0.66189,0.004 0.7891,0.31086 0.0716,0.17217 0.12272,0.31727 0.11478,0.3252 -0.008,0.008 -0.70302,0.0634 -1.54472,0.12339 -1.9034,0.13573 -3.73858,0.39962 -5.34675,0.76892 -1.17647,0.27021 -1.50575,0.39962 -1.36777,0.53764 0.0314,0.0314 0.61215,-0.0763 1.28169,-0.23778 2.08513,-0.50273 4.83818,-0.87174 6.50409,-0.87174 0.66954,0 0.69278,0.008 0.8375,0.28694 0.20124,0.38786 1.24764,1.49106 1.72588,1.81952 1.08188,0.74319 2.43903,1.25644 4.05549,1.53391 0.59302,0.10187 1.12186,0.18556 1.17169,0.18556 0.0492,0 -0.0857,0.21043 -0.2944,0.45912 -0.39331,0.46867 -0.76567,1.18651 -0.76902,1.48255 -0.005,0.43434 -1.64821,0.7713 -2.70034,0.5537 -0.70254,-0.14529 -1.19408,-0.48675 -1.80202,-1.25194 -0.73725,-0.92779 -1.33573,-1.52339 -1.73697,-1.72836 -0.46868,-0.23941 -1.42822,-0.25242 -1.62182,-0.022 -0.11248,0.1339 -0.0807,0.19062 0.25405,0.45385 0.95858,0.75351 1.43578,1.33477 1.93582,2.35821 0.56557,1.15734 1.12043,1.75629 2.01446,2.17447 0.51669,0.2417 0.62171,0.255 2.00861,0.255 l 1.46342,0 -0.0287,1.84601 -0.0287,1.84602 -0.39216,0.3539 c -0.21999,0.19856 -0.52654,0.46801 -0.69823,0.61387 -0.45844,0.38938 -0.3539,0.50426 0.48781,0.53573 0.65041,0.0244 0.77446,-0.003 1.32951,-0.29154 1.03893,-0.54051 1.04257,-0.55199 1.04257,-3.28753 0,-2.52512 0.0788,-3.15688 0.444,-3.55812 l 0.2351,-0.25825 -0.0478,3.20422 c -0.0284,1.9034 -0.0905,3.3518 -0.15304,3.56768 -0.0582,0.20086 -0.23146,0.50684 -0.38737,0.68389 -0.1516,0.17217 -0.28216,0.4133 -0.28216,0.52128 0,0.17407 0.0574,0.20086 0.43041,0.20086 0.74606,0 1.71335,-0.66571 2.01512,-1.3869 0.20756,-0.49574 0.32827,-2.20948 0.32827,-4.65807 l 0,-2.27644 0.46868,0 0.0287,3.22814 c 0.0287,3.22335 0.0291,3.2288 0.26781,3.70637 0.40651,0.81301 1.80451,1.64986 2.30513,1.37985 0.25902,-0.13971 0.22755,-0.27989 -0.20411,-0.91117 -0.21579,-0.31564 -0.42191,-0.76088 -0.47815,-1.033 -0.12846,-0.62171 -0.0828,-6.07827 0.051,-6.09787 0.0535,-0.008 0.18001,0.12941 0.28694,0.31114 0.17561,0.29852 0.19522,0.5452 0.23912,3.00336 0.0335,1.87471 0.0842,2.74128 0.16901,2.88858 0.20498,0.3561 0.87356,0.86151 1.29441,0.97868 0.22248,0.0619 0.6791,0.0992 1.02344,0.0836 0.80344,-0.0363 0.85127,-0.21072 0.19129,-0.69776 -0.93936,-0.69326 -0.90837,-0.56538 -0.91784,-3.77916 -0.009,-2.9938 -0.0637,-3.49337 -0.47384,-4.31375 -0.11956,-0.23912 -0.38737,-0.58556 -0.60258,-0.77953 l -0.38738,-0.34912 0.44955,-0.0596 c 0.90866,-0.12032 2.37686,-0.42888 2.98423,-0.62716 1.52081,-0.49632 2.86381,-1.51373 3.49996,-2.65138 l 0.27815,-0.49737 0.54519,0 c 2.02775,0 5.78243,0.5319 7.79535,1.10436 0.15304,0.0435 0.21999,0.0188 0.21999,-0.0809 0,-0.3672 -3.57725,-0.99876 -6.87712,-1.21426 -0.81301,-0.0531 -1.488,-0.11115 -1.50646,-0.1296 -0.0181,-0.0181 0.0149,-0.17217 0.0717,-0.33477 l 0.10521,-0.30129 1.20517,0.003 c 1.66791,0.004 3.79724,0.15485 5.5476,0.39292 1.33908,0.18211 1.6836,0.18776 1.52081,0.025 -0.20449,-0.20459 -2.9364,-0.50196 -5.7102,-0.62171 -1.33908,-0.0578 -2.44554,-0.11172 -2.45338,-0.11956 -0.008,-0.008 0.0529,-0.33956 0.1339,-0.73172 0.098,-0.47422 0.1515,-1.30081 0.15782,-2.43903 0.008,-1.52081 -0.0158,-1.80871 -0.20746,-2.46773 -0.27547,-0.94692 -0.65347,-1.69709 -1.24831,-2.47729 l -0.46676,-0.61215 0.0383,-1.62124 c 0.0355,-1.50168 0.022,-1.66706 -0.18173,-2.24296 l -0.22,-0.62171 -0.47824,-0.0191 c -0.26781,-0.0107 -0.68446,0.0386 -0.94692,0.11191 z"
       inkscape:connector-curvature="0"
       sodipodi:nodetypes="cccccccccscccccccccsccccccscccsccsccccccscccccccsccsccsscsccccsccccsccccccccccccscsccccccccccccccccccc" />
  </g>
</svg>
